<svg xmlns="http://www.w3.org/2000/svg" viewBox="0 0 512 512" fill="none">
  <defs>
    <linearGradient id="bg" x1="0" y1="0" x2="512" y2="512" gradientUnits="userSpaceOnUse">
      <stop offset="0%" stop-color="#3b82f6"/>
      <stop offset="100%" stop-color="#8b5cf6"/>
    </linearGradient>
    <linearGradient id="mountain" x1="0" y1="512" x2="512" y2="160" gradientUnits="userSpaceOnUse">
      <stop offset="0%" stop-color="#1e3a5f"/>
      <stop offset="100%" stop-color="#0f172a"/>
    </linearGradient>
  </defs>
  <rect width="512" height="512" rx="100" fill="url(#bg)"/>
  <!-- Mountain/landscape silhouette -->
  <path d="M0 375 L133 240 L213 307 L320 187 L427 267 L512 213 L512 512 L0 512 Z" fill="url(#mountain)" opacity="0.3"/>
  <!-- Sun/circle -->
  <circle cx="373" cy="147" r="58" fill="white" opacity="0.9"/>
  <!-- Image frame icon -->
  <rect x="107" y="133" width="298" height="245" rx="20" fill="white" opacity="0.95"/>
  <rect x="128" y="154" width="256" height="203" rx="12" fill="#e2e8f0"/>
  <!-- Mountain inside frame -->
  <path d="M128 293 L192 219 L235 256 L299 187 L352 235 L384 208 L384 357 L128 357 Z" fill="#3b82f6" opacity="0.6"/>
  <!-- Sun inside frame -->
  <circle cx="320" cy="203" r="27" fill="#fbbf24"/>
  <!-- Small tree -->
  <path d="M200 357 L213 293 L226 357 Z" fill="#1e3a5f" opacity="0.5"/>
</svg>
